<?xml version="1.0" encoding="UTF-8"?><svg id="_レイヤー_2" xmlns="http://www.w3.org/2000/svg" viewBox="0 0 37.26 49.36"><defs><style>.cls-1{fill:none;stroke:#13295a;stroke-linecap:round;stroke-miterlimit:10;stroke-width:1.5px;}.cls-2{fill:#1eb2aa;}</style></defs><g id="_レイヤー_1-2"><path class="cls-2" d="M17.35,4.82h1.56v-1H.94c.13,1.06.33,2.06.59,3h15.82v-2Z"/><path class="cls-2" d="M19.91,3.82v2h-1.56v1h17.38c.26-.94.46-1.94.59-3h-16.41Z"/><path class="cls-2" d="M18.97,12.11l-1.23-1.5H3.01c.56,1.07,1.2,2.07,1.91,3h12.82l1.23-1.5Z"/><path class="cls-2" d="M19.03,10.61l1.23,1.5-1.23,1.5h13.31c.71-.93,1.35-1.93,1.91-3h-15.21Z"/><path class="cls-2" d="M27.5,17.39h-9.15v1h1.56v2h5.01c1.19-.85,2.37-1.74,3.48-2.69-.25-.19-.56-.31-.9-.31Z"/><path class="cls-2" d="M18.91,19.39h-1.56v-2h-7.59c-.34,0-.65.12-.9.31,1.11.95,2.28,1.84,3.48,2.69h6.57v-1Z"/><path class="cls-2" d="M18.91,31.96v-1h-1.56v-2h-5.01c-1.19.85-2.37,1.74-3.48,2.69.25.19.56.31.9.31h9.15Z"/><path class="cls-2" d="M18.35,29.96h1.56v2h7.59c.34,0,.65-.12.9-.31-1.11-.95-2.28-1.84-3.48-2.69h-6.57v1Z"/><path class="cls-2" d="M17,37.25l1.23-1.5H4.92c-.71.93-1.35,1.93-1.91,3h15.21l-1.23-1.5Z"/><path class="cls-2" d="M18.29,37.25l1.23,1.5h14.73c-.56-1.07-1.2-2.07-1.91-3h-12.82l-1.23,1.5Z"/><path class="cls-2" d="M19.91,42.54v2h-1.56v1h-1v-2h1.56v-1H1.53c-.26.94-.46,1.94-.59,3h35.37c-.13-1.06-.33-2.06-.59-3h-15.82Z"/><path class="cls-1" d="M36.51,48.61c0-12.03-7.95-17.26-15.28-22.17"/><path class="cls-1" d="M18.63,24.68C10.72,19.17.75,14.23.75.75"/><path class="cls-1" d="M.75,48.61c0-13.48,9.97-18.42,17.88-23.93,7.91-5.51,17.88-10.45,17.88-23.93"/></g></svg>