<?xml version="1.0" encoding="UTF-8"?><svg id="_レイヤー_2" xmlns="http://www.w3.org/2000/svg" viewBox="0 0 64.14 42.85"><defs><style>.cls-1{fill:#1eb2aa;}.cls-1,.cls-2{stroke:#13295a;stroke-linecap:round;stroke-linejoin:round;stroke-width:1.5px;}.cls-2{fill:none;}</style></defs><g id="_レイヤー_1-2"><polyline class="cls-2" points="58.07 4.39 58.07 23.67 19.28 23.67 5.62 10.48"/><line class="cls-2" x1="19.28" y1="23.73" x2="5.62" y2="37.23"/><rect class="cls-1" x="53.48" y="19.08" width="9.19" height="9.19" rx="2" ry="2"/><rect class="cls-1" x="33.53" y="19.08" width="9.19" height="9.19" rx="2" ry="2"/><path class="cls-1" d="M19.28,28.6h0c-2.69,0-4.87-2.18-4.87-4.87h0c0-2.69,2.18-4.87,4.87-4.87h0c2.69,0,4.87,2.18,4.87,4.87h0c0,2.69-2.18,4.87-4.87,4.87Z"/><path class="cls-1" d="M5.62,42.1h0c-2.69,0-4.87-2.18-4.87-4.87h0c0-2.69,2.18-4.87,4.87-4.87h0c2.69,0,4.87,2.18,4.87,4.87h0c0,2.69-2.18,4.87-4.87,4.87Z"/><path class="cls-1" d="M5.62,15.35h0c-2.69,0-4.87-2.18-4.87-4.87h0c0-2.69,2.18-4.87,4.87-4.87h0c2.69,0,4.87,2.18,4.87,4.87h0c0,2.69-2.18,4.87-4.87,4.87Z"/><path class="cls-1" d="M58.07.75h4.82c.38,0,.61.44.43.79l-2.41,4.49-2.41,4.49c-.19.35-.66.35-.85,0l-2.41-4.49-2.41-4.49c-.19-.35.05-.79.43-.79h4.82-.01Z"/></g></svg>