<svg xmlns="http://www.w3.org/2000/svg" viewBox="0 0 72.6 72.6"><defs><style>.cls-1{fill:#13295a;}.cls-2{fill:none;stroke:#fff;stroke-miterlimit:10;stroke-width:1.5px;}.cls-3{fill:#fff;}</style></defs><title>アセット 8</title><g id="レイヤー_2" data-name="レイヤー 2"><g id="レイヤー_7" data-name="レイヤー 7"><circle class="cls-1" cx="36.3" cy="36.3" r="36.3"/><polygon class="cls-2" points="39.44 26.07 37.81 26.07 37.81 24.44 34.98 24.44 34.98 26.07 33.34 26.07 33.34 28.91 34.98 28.91 34.98 30.54 37.81 30.54 37.81 28.91 39.44 28.91 39.44 26.07"/><rect class="cls-2" x="22.53" y="15.78" width="27.57" height="39.65" rx="2.82"/><rect class="cls-2" x="19.76" y="25.33" width="33.1" height="21.01" rx="1.13" transform="translate(72.14 -0.48) rotate(90)"/><line class="cls-2" x1="29.48" y1="35.38" x2="32.02" y2="35.38"/><line class="cls-2" x1="33.7" y1="35.38" x2="43.08" y2="35.38"/><line class="cls-2" x1="29.48" y1="39.29" x2="32.02" y2="39.29"/><line class="cls-2" x1="33.7" y1="39.29" x2="43.08" y2="39.29"/><line class="cls-2" x1="29.48" y1="43.21" x2="32.02" y2="43.21"/><line class="cls-2" x1="33.7" y1="43.21" x2="43.08" y2="43.21"/><line class="cls-2" x1="29.48" y1="47.12" x2="32.02" y2="47.12"/><line class="cls-2" x1="33.7" y1="47.12" x2="43.08" y2="47.12"/><rect class="cls-3" x="30.99" y="13.05" width="10.64" height="8.36" rx="1.05"/></g></g></svg>