<?xml version="1.0" encoding="utf-8"?>
<!-- Generator: Adobe Illustrator 23.0.2, SVG Export Plug-In . SVG Version: 6.00 Build 0)  -->
<svg version="1.1" id="レイヤー_1" xmlns="http://www.w3.org/2000/svg" xmlns:xlink="http://www.w3.org/1999/xlink" x="0px"
	 y="0px" viewBox="0 0 995.1 782.1" style="enable-background:new 0 0 995.1 782.1;" xml:space="preserve">
<style type="text/css">
	.st0{clip-path:url(#SVGID_2_);}
	.st1{fill:url(#SVGID_3_);}
	.st2{fill:url(#SVGID_4_);}
	.st3{fill:url(#SVGID_5_);}
	.st4{fill:url(#SVGID_6_);}
	.st5{fill:url(#SVGID_7_);}
	.st6{fill:url(#SVGID_8_);}
	.st7{fill:url(#SVGID_9_);}
	.st8{fill:url(#SVGID_10_);}
	.st9{fill:url(#SVGID_11_);}
	.st10{fill:url(#SVGID_12_);}
	.st11{fill:url(#SVGID_13_);}
	.st12{fill:url(#SVGID_14_);}
	.st13{fill:url(#SVGID_15_);}
	.st14{fill:url(#SVGID_16_);}
	.st15{fill:url(#SVGID_17_);}
	.st16{fill:url(#SVGID_18_);}
	.st17{fill:url(#SVGID_19_);}
	.st18{fill:url(#SVGID_20_);}
	.st19{fill:url(#SVGID_21_);}
	.st20{fill:url(#SVGID_22_);}
	.st21{fill:url(#SVGID_23_);}
	.st22{fill:url(#SVGID_24_);}
	.st23{fill:url(#SVGID_25_);}
	.st24{fill:url(#SVGID_26_);}
	.st25{fill:url(#SVGID_27_);}
	.st26{fill:none;stroke:#495AFF;stroke-miterlimit:10;}
	.st27{fill:#13295A;}
</style>
<title>アセット 2</title>
<g>
	<g id="レイヤー_5">
		<g>
			<defs>
				<rect id="SVGID_1_" width="995.1" height="782.1"/>
			</defs>
			<clipPath id="SVGID_2_">
				<use xlink:href="#SVGID_1_"  style="overflow:visible;"/>
			</clipPath>
			<g class="st0">
				
					<linearGradient id="SVGID_3_" gradientUnits="userSpaceOnUse" x1="847.1433" y1="111.7673" x2="1122.7822" y2="111.7673" gradientTransform="matrix(1 0 0 -1 -74.33 517.7275)">
					<stop  offset="0" style="stop-color:#FFFFFF"/>
					<stop  offset="1" style="stop-color:#13295A"/>
				</linearGradient>
				<path class="st1" d="M1021.5,494.9c-0.3,0-0.6-0.2-0.7-0.4c-50.1-75.6-245.4-174.6-247.4-175.6c-0.5-0.2-0.7-0.8-0.5-1.2
					c0.2-0.5,0.7-0.7,1.2-0.6l273.6,70c0.5,0.1,0.9,0.7,0.7,1.2c0,0,0,0,0,0c-0.1,0.5-0.7,0.9-1.2,0.7c0,0,0,0,0,0l-265.1-67.8
					c16.1,8.4,55,29.2,97,55.2c50.8,31.4,116.9,77.3,143.2,117c0.3,0.5,0.2,1.1-0.3,1.4C1021.9,494.9,1021.7,494.9,1021.5,494.9z"/>
				
					<linearGradient id="SVGID_4_" gradientUnits="userSpaceOnUse" x1="847.1315" y1="192.2473" x2="1138.0133" y2="192.2473" gradientTransform="matrix(1 0 0 -1 -74.33 517.7275)">
					<stop  offset="0" style="stop-color:#FFFFFF"/>
					<stop  offset="1" style="stop-color:#13295A"/>
				</linearGradient>
				<path class="st2" d="M822.5,324.6c-28.8-3-48.2-5.5-48.8-5.6c-0.6-0.1-0.9-0.6-0.9-1.1s0.6-0.9,1.1-0.9
					c2.2,0.3,225.1,29.4,288.4,5.8c0.5-0.2,1.1,0.1,1.3,0.6c0.2,0.5-0.1,1.1-0.6,1.3C1017.9,341.5,892.5,331.8,822.5,324.6z"/>
				
					<linearGradient id="SVGID_5_" gradientUnits="userSpaceOnUse" x1="849.8384" y1="172.7701" x2="1126.0299" y2="172.7701" gradientTransform="matrix(1 0 0 -1 -74.33 517.7275)">
					<stop  offset="0" style="stop-color:#FFFFFF"/>
					<stop  offset="1" style="stop-color:#13295A"/>
				</linearGradient>
				<path class="st3" d="M1050.6,371.2L1050.6,371.2c-2.1-0.4-204.5-40.3-274.2-50.6c-0.5-0.1-0.9-0.6-0.8-1.1c0,0,0,0,0,0
					c0.1-0.5,0.6-0.9,1.1-0.8c69.7,10.3,272.2,50.2,274.2,50.6c0.5,0.1,0.9,0.6,0.8,1.2c0,0,0,0,0,0
					C1051.6,371,1051.1,371.3,1050.6,371.2z"/>
				
					<linearGradient id="SVGID_6_" gradientUnits="userSpaceOnUse" x1="850.0472" y1="183.5119" x2="1130.8341" y2="183.5119" gradientTransform="matrix(1 0 0 -1 -74.33 517.7275)">
					<stop  offset="0" style="stop-color:#FFFFFF"/>
					<stop  offset="1" style="stop-color:#13295A"/>
				</linearGradient>
				<path class="st4" d="M938.5,340c-52.2-5.4-112.8-12.4-161.9-20.3c-0.6-0.1-0.9-0.6-0.8-1.2c0.1-0.6,0.6-0.9,1.2-0.8
					c109.6,17.7,277,31,278.7,31.1l0,0c0.6,0,1,0.5,0.9,1.1c0,0.6-0.5,1-1.1,0.9C1054.5,350.7,1002.9,346.6,938.5,340z"/>
				
					<linearGradient id="SVGID_7_" gradientUnits="userSpaceOnUse" x1="847.1423" y1="153.4787" x2="1117.6046" y2="153.4787" gradientTransform="matrix(1 0 0 -1 -74.33 517.7275)">
					<stop  offset="0" style="stop-color:#FFFFFF"/>
					<stop  offset="1" style="stop-color:#13295A"/>
				</linearGradient>
				<path class="st5" d="M1042.2,411.4h-0.2c-2.2-0.8-221.2-77.2-268.4-92.4c-0.5-0.2-0.8-0.7-0.7-1.3c0.2-0.5,0.7-0.8,1.3-0.6
					c47.2,15.2,266.3,91.7,268.5,92.4c0.5,0.2,0.8,0.7,0.6,1.3C1043.1,411.2,1042.6,411.5,1042.2,411.4L1042.2,411.4z"/>
				
					<linearGradient id="SVGID_8_" gradientUnits="userSpaceOnUse" x1="857.3454" y1="137.8206" x2="1118.5223" y2="137.8206" gradientTransform="matrix(1 0 0 -1 -74.33 517.7275)">
					<stop  offset="0" style="stop-color:#FFFFFF"/>
					<stop  offset="1" style="stop-color:#13295A"/>
				</linearGradient>
				<path class="st6" d="M1043.1,438.9c-0.1,0-0.2,0-0.3-0.1c-2.1-1-213.7-96.1-259.2-116c-0.5-0.2-0.7-0.8-0.5-1.3c0,0,0,0,0,0
					c0.2-0.5,0.8-0.7,1.3-0.5c0,0,0,0,0,0c45.4,19.9,257,115.1,259.2,116c0.5,0.2,0.7,0.8,0.5,1.3
					C1043.9,438.7,1043.5,439,1043.1,438.9L1043.1,438.9z"/>
				
					<linearGradient id="SVGID_9_" gradientUnits="userSpaceOnUse" x1="847.1439" y1="128.808" x2="1104.9325" y2="128.808" gradientTransform="matrix(1 0 0 -1 -74.33 517.7275)">
					<stop  offset="0" style="stop-color:#FFFFFF"/>
					<stop  offset="1" style="stop-color:#13295A"/>
				</linearGradient>
				<path class="st7" d="M1029.5,460.8c-0.1,0-0.3-0.1-0.4-0.1c-1.8-1.1-176.6-106.9-255.7-141.8c-0.5-0.2-0.7-0.8-0.5-1.3
					c0,0,0,0,0,0c0.2-0.5,0.8-0.7,1.3-0.5c0,0,0,0,0,0c79.2,34.9,254.2,140.8,255.9,141.9c0.5,0.3,0.6,0.9,0.3,1.4
					C1030.3,460.7,1029.9,460.9,1029.5,460.8z"/>
				
					<linearGradient id="SVGID_10_" gradientUnits="userSpaceOnUse" x1="590.317" y1="349.8422" x2="670.0912" y2="349.8422" gradientTransform="matrix(0.9947 0.1024 0.1024 -0.9947 -74.1769 520.7845)">
					<stop  offset="0" style="stop-color:#FFFFFF"/>
					<stop  offset="1" style="stop-color:#13295A"/>
				</linearGradient>
				<path class="st8" d="M624.9,271.3c-35.7-7.6-53.7-25.5-62.5-39.3c-9.5-14.9-10.5-27.9-10.6-28.4l2-0.1c0,0.1,1,13.1,10.3,27.5
					c8.6,13.4,26.1,30.9,61.1,38.3L624.9,271.3z"/>
				
					<linearGradient id="SVGID_11_" gradientUnits="userSpaceOnUse" x1="571.5803" y1="359.506" x2="667.7405" y2="359.506" gradientTransform="matrix(0.9947 0.1024 0.1024 -0.9947 -74.1769 520.7845)">
					<stop  offset="0" style="stop-color:#FFFFFF"/>
					<stop  offset="1" style="stop-color:#13295A"/>
				</linearGradient>
				<path class="st9" d="M622.8,270.6c-38.5-5.9-64.9-19.5-78.6-40.5c-9-14.1-12.1-31.1-8.6-47.4l1.9,0.5
					c-3.3,15.8-0.3,32.2,8.3,45.8c13.3,20.5,39.3,33.9,77.2,39.6L622.8,270.6z"/>
				
					<linearGradient id="SVGID_12_" gradientUnits="userSpaceOnUse" x1="548.5112" y1="370.7179" x2="664.121" y2="370.7179" gradientTransform="matrix(0.9947 0.1024 0.1024 -0.9947 -74.1769 520.7845)">
					<stop  offset="0" style="stop-color:#FFFFFF"/>
					<stop  offset="1" style="stop-color:#13295A"/>
				</linearGradient>
				<path class="st10" d="M607.3,269.5c-39.5-4.1-67.1-17.3-82.2-39.4c-21.9-32.1-9.1-72-9-72.4l1.9,0.6
					c-0.1,0.4-12.6,39.4,8.7,70.6c16.2,23.8,47.4,37.1,92.6,39.5l-0.1,2C615.2,270.2,611.2,269.9,607.3,269.5z"/>
				
					<linearGradient id="SVGID_13_" gradientUnits="userSpaceOnUse" x1="201.2077" y1="362.5799" x2="976.1797" y2="362.5799" gradientTransform="matrix(0.9947 0.1024 0.1024 -0.9947 -74.1769 520.7845)">
					<stop  offset="0" style="stop-color:#FFFFFF"/>
					<stop  offset="0.24" style="stop-color:#C7CCD8"/>
					<stop  offset="0.85" style="stop-color:#13295A"/>
					<stop  offset="1" style="stop-color:#FFFFFF;stop-opacity:0"/>
				</linearGradient>
				<path class="st11" d="M909.9,479.4c-82.9-134-168.6-203.3-254.7-206.3c-156.5-5.4-234.6-30.9-235.4-31.2
					c-51-17.3-95.1-42.9-131-75.9c-28.7-26.4-52.5-57.9-70-92.8C188.6,13.4,185.7-38,185.7-38.5l2-0.1c0,0.5,2.9,51.5,32.9,111
					c17.4,34.7,41,65.9,69.5,92.2c35.6,32.8,79.5,58.1,130.2,75.4c0.8,0.3,78.7,25.7,234.8,31.1c86.8,3,173.1,72.7,256.4,207.3
					L909.9,479.4z"/>
				
					<linearGradient id="SVGID_14_" gradientUnits="userSpaceOnUse" x1="157.7866" y1="463.5885" x2="427.3342" y2="463.5885" gradientTransform="matrix(0.9947 0.1024 0.1024 -0.9947 -74.1769 520.7845)">
					<stop  offset="0" style="stop-color:#FFFFFF"/>
					<stop  offset="1" style="stop-color:#13295A"/>
				</linearGradient>
				<path class="st12" d="M385,228c-56.5-23.2-106.2-52.5-143.9-86.4c-30.2-27.1-54-57.5-70.9-90.2C158.5,29,150.3,5,145.8-19.8
					c-3.1-17.8-2.6-28.9-2.6-29l2,0.1c0,0.4-1.6,43.9,26.9,99.2c16.8,32.5,40.5,62.6,70.5,89.6c37.5,33.7,87.1,62.9,143.3,86
					L385,228z"/>
				
					<linearGradient id="SVGID_15_" gradientUnits="userSpaceOnUse" x1="118.4989" y1="460.2126" x2="463.1312" y2="460.2126" gradientTransform="matrix(0.9947 0.1024 0.1024 -0.9947 -74.1769 520.7845)">
					<stop  offset="0" style="stop-color:#FFFFFF"/>
					<stop  offset="1" style="stop-color:#13295A"/>
				</linearGradient>
				<path class="st13" d="M419.9,241.9c-74.9-18.6-138.1-45.8-187.8-81c-39.8-28.1-71.1-61.3-93.1-98.6
					c-15.3-25.7-25.9-54-31.5-83.4c-3.9-21.4-3.1-35.1-3.1-35.2l2,0.1c0,0.5-2.8,54.4,34.4,117.6c21.8,37.1,53,70,92.6,98
					c49.5,34.9,112.4,62.1,187,80.6L419.9,241.9z"/>
				
					<linearGradient id="SVGID_16_" gradientUnits="userSpaceOnUse" x1="101.3051" y1="397.5171" x2="463.1371" y2="397.5171" gradientTransform="matrix(0.9947 0.1024 0.1024 -0.9947 -74.1769 520.7845)">
					<stop  offset="0" style="stop-color:#FFFFFF"/>
					<stop  offset="1" style="stop-color:#13295A"/>
				</linearGradient>
				<path class="st14" d="M419.9,241.9c-83.4-19.2-200.1-54.2-282.4-112.2c-25.8-18.1-41.5-34-50.2-44.1
					c-9.5-11-12.8-17.6-12.9-17.9l1.8-0.9c0.1,0.3,13.7,26.9,62.7,61.4c82,57.7,198.3,92.7,281.5,111.8L419.9,241.9z"/>
				
					<linearGradient id="SVGID_17_" gradientUnits="userSpaceOnUse" x1="139.3279" y1="461.6884" x2="445.2726" y2="461.6884" gradientTransform="matrix(0.9947 0.1024 0.1024 -0.9947 -74.1769 520.7845)">
					<stop  offset="0" style="stop-color:#FFFFFF"/>
					<stop  offset="1" style="stop-color:#13295A"/>
				</linearGradient>
				<path class="st15" d="M402.4,235.9c-66-21.2-121.6-49.5-165.4-84.2c-35-27.8-62.6-59.7-81.8-94.9
					c-13.4-24.1-22.7-50.3-27.5-77.5c-3.4-19.6-2.6-32-2.6-32.2l2,0.1c0,0.5-2.6,49.3,30,108.7c19.1,34.9,46.5,66.6,81.3,94.2
					c43.6,34.5,99,62.7,164.7,83.8L402.4,235.9z"/>
				
					<linearGradient id="SVGID_18_" gradientUnits="userSpaceOnUse" x1="178.931" y1="457.1437" x2="462.057" y2="457.1437" gradientTransform="matrix(0.9947 0.1024 0.1024 -0.9947 -74.1769 520.7845)">
					<stop  offset="0" style="stop-color:#FFFFFF"/>
					<stop  offset="1" style="stop-color:#13295A"/>
				</linearGradient>
				<path class="st16" d="M418.6,241.6C360.9,220,309,190.6,269.8,156.3c-31.4-27.5-56.6-58.8-74.8-93.2
					C164,4.5,163.8-43.2,163.8-43.6h2c0,0.5,0.1,47.8,31,105.9c18.1,34.1,43.1,65.3,74.3,92.6c39,34.1,90.7,63.4,148.1,84.9
					L418.6,241.6z"/>
				
					<linearGradient id="SVGID_19_" gradientUnits="userSpaceOnUse" x1="997.5538" y1="368.7495" x2="1098.6007" y2="368.7495" gradientTransform="matrix(0.9947 0.1024 0.1024 -0.9947 -74.1769 520.7845)">
					<stop  offset="0" style="stop-color:#FFFFFF"/>
					<stop  offset="1" style="stop-color:#13295A"/>
				</linearGradient>
				<path class="st17" d="M954.4,280.3c-0.5-0.1-0.9-0.5-0.9-1c0-0.5,0.4-0.9,0.9-1c0.7-0.1,68.6-7.7,97.5-36.2
					c0.4-0.4,1.1-0.3,1.4,0.1c0.3,0.4,0.3,0.9,0,1.3c-22,21.7-66,31.5-87,35c23.9,0.3,76.9-0.7,88.5-14.1c0.3-0.4,1-0.5,1.4-0.1
					s0.5,1,0.1,1.4c0,0,0,0,0,0C1040.6,283.8,958,280.4,954.4,280.3L954.4,280.3z"/>
				
					<linearGradient id="SVGID_20_" gradientUnits="userSpaceOnUse" x1="821.8245" y1="434.5689" x2="1127.9061" y2="434.5689" gradientTransform="matrix(0.9947 0.1024 0.1024 -0.9947 -74.1769 520.7845)">
					<stop  offset="0" style="stop-color:#13295A"/>
					<stop  offset="1" style="stop-color:#FFFFFF"/>
				</linearGradient>
				<path class="st18" d="M821.2,249c-13.5-1.4-24.3-2.2-38.5-6.2l-1.9-2.2c47.8,10.3,94.2,11,138,2.1c35.1-7.2,68.7-20.6,99.1-39.5
					c52.5-32.5,79.7-70.9,80-71.3l1.6,1.1c-0.3,0.4-27.7,39.2-80.5,71.9c-30.7,19.1-64.5,32.5-99.8,39.8
					C887,251,854,252.5,821.2,249z"/>
				
					<linearGradient id="SVGID_21_" gradientUnits="userSpaceOnUse" x1="323.3095" y1="397.1733" x2="1085.623" y2="397.1733" gradientTransform="matrix(0.9947 0.1024 0.1024 -0.9947 -74.1769 520.7845)">
					<stop  offset="0" style="stop-color:#FFFFFF"/>
					<stop  offset="1" style="stop-color:#13295A"/>
				</linearGradient>
				<path class="st19" d="M740,316.4c-18.9-1.9-35.8-5.8-50.1-11.5c-39.7-15.7-96.4-46.6-141.4-105.1c-3.4-4.4-9.1-12-15.2-20.1
					c-10.7-14.3-22.9-30.5-28.9-37.9c-8.8-10.8-33.5-38.2-73.2-59.5c-40.4-21.9-86.4-31.3-132.1-26.9l-0.2-2
					c46.1-4.4,92.5,5,133.2,27.1c40,21.5,64.9,49.1,73.8,60c6.1,7.5,18.2,23.7,28.9,38c6,8.1,11.8,15.7,15.2,20.1
					c44.8,58.1,101.2,88.9,140.6,104.5c38.1,15.1,94.2,16.9,157.8,5.2C915,296,985,269.4,1045.6,233.4l1,1.7
					c-60.8,36.2-131.1,62.9-197.9,75.2C808.7,317.6,771.6,319.7,740,316.4z"/>
				
					<linearGradient id="SVGID_22_" gradientUnits="userSpaceOnUse" x1="663.3151" y1="463.9782" x2="685.2051" y2="280.4382" gradientTransform="matrix(1 0 0 -1 -74.33 517.7275)">
					<stop  offset="0" style="stop-color:#FFFFFF"/>
					<stop  offset="1" style="stop-color:#13295A"/>
				</linearGradient>
				<path class="st20" d="M770.7,239.1c-87-21.7-160.4-58.3-218.4-108.9C504.4,88.6,466.9,37.3,440.8-22
					c-46.9-106.7-43.5-207.4-38.2-237.3c1.9-10.9,3.6-10.7,4.5-10.6s3.3,0.4,2.5,20.6l-2-0.1c0.5-13-0.4-17-0.8-18.2
					c-3.6,6-11.6,65.6,4.7,146c15.6,76.8,48.7,147.1,95.8,203.2c63.2,75.2,151.9,127.5,263.8,155.4L770.7,239.1z"/>
				
					<linearGradient id="SVGID_23_" gradientUnits="userSpaceOnUse" x1="777.6003" y1="477.6076" x2="799.4902" y2="294.0676" gradientTransform="matrix(1 0 0 -1 -74.33 517.7275)">
					<stop  offset="0" style="stop-color:#FFFFFF"/>
					<stop  offset="1" style="stop-color:#13295A"/>
				</linearGradient>
				<path class="st21" d="M784.9,243.3c-50.8-29.6-85.2-87.5-107-131.2c-14.2-28.6-26.1-58.2-35.5-88.7l1.9-0.5
					c9.3,30.4,21.2,60,35.3,88.4c21.7,43.5,56,101.1,106.4,130.4L784.9,243.3z"/>
				
					<linearGradient id="SVGID_24_" gradientUnits="userSpaceOnUse" x1="706.8064" y1="469.1707" x2="728.6964" y2="285.6307" gradientTransform="matrix(1 0 0 -1 -74.33 517.7275)">
					<stop  offset="0" style="stop-color:#FFFFFF"/>
					<stop  offset="1" style="stop-color:#13295A"/>
				</linearGradient>
				<path class="st22" d="M784.8,243.3c-34.6-9.2-71.4-28.5-109.2-57.2c-30.4-23-61.5-52.1-92.4-86.5
					c-53.3-59.2-88.1-114.2-88.2-115.9l1-0.1l1-0.3c1.2,3.3,37,58.7,88.8,116.1c48.2,53.3,121.9,121.2,199.6,141.9L784.8,243.3z"/>
				
					<linearGradient id="SVGID_25_" gradientUnits="userSpaceOnUse" x1="746.4183" y1="473.8933" x2="768.3083" y2="290.3533" gradientTransform="matrix(1 0 0 -1 -74.33 517.7275)">
					<stop  offset="0" style="stop-color:#FFFFFF"/>
					<stop  offset="1" style="stop-color:#13295A"/>
				</linearGradient>
				<path class="st23" d="M783.7,243c-65.7-28.7-117.9-91-150-138.1c-34.9-51.1-54.5-96-54.7-96.4l1.8-0.8
					c0.2,0.5,19.7,45.2,54.5,96.1c32,47,83.9,108.9,149.2,137.4L783.7,243z"/>
				
					<linearGradient id="SVGID_26_" gradientUnits="userSpaceOnUse" x1="760.4133" y1="475.5632" x2="782.3033" y2="292.0232" gradientTransform="matrix(1 0 0 -1 -74.33 517.7275)">
					<stop  offset="0" style="stop-color:#FFFFFF"/>
					<stop  offset="1" style="stop-color:#13295A"/>
				</linearGradient>
				<path class="st24" d="M778.7,240c-52.4-27-94.7-86.4-121-131.4c-17.2-29.5-32.2-60.3-44.8-92.1l1.9-0.7
					c12.6,31.7,27.5,62.4,44.7,91.8c26.1,44.8,68.1,103.8,120.1,130.6L778.7,240z"/>
				
					<linearGradient id="SVGID_27_" gradientUnits="userSpaceOnUse" x1="724.3025" y1="471.2491" x2="746.1924" y2="287.719" gradientTransform="matrix(1 0 0 -1 -74.33 517.7275)">
					<stop  offset="0" style="stop-color:#FFFFFF"/>
					<stop  offset="1" style="stop-color:#13295A"/>
				</linearGradient>
				<path class="st25" d="M778.9,240c-25.8-7.4-54.5-24.6-85.4-51.4c-24.7-21.3-50.8-48.7-77.6-81.4
					c-28.2-34.5-54.4-70.7-78.3-108.4l1.7-1c23.8,37.6,49.9,73.8,78.1,108.2c42,51.1,104.2,115.5,162,132.1L778.9,240z"/>
				<text transform="matrix(1 0 0 1 1263.21 124.35)" style="font-family:'KozGoPr6N-Regular-83pv-RKSJ-H'; font-size:12px;">山路を登りながら</text>
				<polyline class="st26" points="1041.7,138.1 793.4,440.7 851.2,153.9 605.6,223 439.3,142.2 159.1,190.9 				"/>
				<line class="st26" x1="1015.7" y1="790" x2="851.2" y2="153.9"/>
				<polyline class="st26" points="159.1,190.9 325.3,102.1 439.3,142.2 465,236.3 605.6,223 377.3,-29.3 				"/>
				<line class="st26" x1="325.3" y1="102.1" x2="465" y2="236.3"/>
				<circle class="st27" cx="159.3" cy="188.9" r="4.8"/>
				<circle class="st27" cx="325.5" cy="101.6" r="4.8"/>
				<circle class="st27" cx="377.6" cy="151.7" r="4.8"/>
				<circle class="st27" cx="439.2" cy="142.5" r="4.8"/>
				<circle class="st27" cx="465" cy="236.3" r="4.8"/>
				<circle class="st27" cx="604.3" cy="222.6" r="4.8"/>
				<circle class="st27" cx="851.2" cy="153.9" r="4.8"/>
				<circle class="st27" cx="793.6" cy="438.3" r="4.8"/>
				<circle class="st27" cx="893.3" cy="318.7" r="4.8"/>
			</g>
		</g>
	</g>
</g>
</svg>
