<?xml version="1.0" encoding="utf-8"?>
<!-- Generator: Adobe Illustrator 23.0.2, SVG Export Plug-In . SVG Version: 6.00 Build 0)  -->
<svg version="1.1" id="レイヤー_1" xmlns="http://www.w3.org/2000/svg" xmlns:xlink="http://www.w3.org/1999/xlink" x="0px"
	 y="0px" viewBox="0 0 732.8 497.7" style="enable-background:new 0 0 732.8 497.7;" xml:space="preserve">
<style type="text/css">
	.st0{clip-path:url(#SVGID_2_);}
	.st1{fill:url(#SVGID_3_);}
	.st2{fill:url(#SVGID_4_);}
	.st3{fill:url(#SVGID_5_);}
	.st4{fill:url(#SVGID_6_);}
	.st5{fill:url(#SVGID_7_);}
	.st6{fill:url(#SVGID_8_);}
	.st7{fill:url(#SVGID_9_);}
	.st8{fill:url(#SVGID_10_);}
	.st9{fill:none;stroke:#495AFF;stroke-miterlimit:10;}
	.st10{fill:#13295A;}
	.st11{fill:url(#SVGID_11_);}
	.st12{fill:url(#SVGID_12_);}
	.st13{fill:url(#SVGID_13_);}
	.st14{fill:url(#SVGID_14_);}
	.st15{fill:url(#SVGID_15_);}
	.st16{fill:url(#SVGID_16_);}
	.st17{fill:url(#SVGID_17_);}
	.st18{fill:url(#SVGID_18_);}
</style>
<title>アセット 1</title>
<g>
	<g id="レイヤー_6">
		<g>
			<defs>
				<rect id="SVGID_1_" width="732.8" height="497.7"/>
			</defs>
			<clipPath id="SVGID_2_">
				<use xlink:href="#SVGID_1_"  style="overflow:visible;"/>
			</clipPath>
			<g class="st0">
				
					<linearGradient id="SVGID_3_" gradientUnits="userSpaceOnUse" x1="124.76" y1="781.3064" x2="371.8" y2="781.3064" gradientTransform="matrix(1 0 0 -1 0 1023.8076)">
					<stop  offset="0" style="stop-color:#FFFFFF;stop-opacity:0"/>
					<stop  offset="8.000000e-02" style="stop-color:#C9CED9;stop-opacity:0.23"/>
					<stop  offset="0.2" style="stop-color:#8792AB;stop-opacity:0.51"/>
					<stop  offset="0.33" style="stop-color:#536387;stop-opacity:0.73"/>
					<stop  offset="0.48" style="stop-color:#2F426D;stop-opacity:0.88"/>
					<stop  offset="0.67" style="stop-color:#192F5E;stop-opacity:0.97"/>
					<stop  offset="1" style="stop-color:#13295A"/>
				</linearGradient>
				<path class="st1" d="M370.5,281.5c-57.4-46.3-121.1-64.2-164.4-71.1c-47-7.5-80.8-4-81.2-3.9l-0.2-2c0.3,0,34.4-3.6,81.6,3.9
					c43.6,6.9,107.7,25,165.4,71.6L370.5,281.5z"/>
				
					<linearGradient id="SVGID_4_" gradientUnits="userSpaceOnUse" x1="-6.2" y1="840.1675" x2="500.51" y2="840.1675" gradientTransform="matrix(1 0 0 -1 0 1023.8076)">
					<stop  offset="0" style="stop-color:#FFFFFF;stop-opacity:0"/>
					<stop  offset="4.000000e-02" style="stop-color:#C1C7D4;stop-opacity:0.26"/>
					<stop  offset="0.1" style="stop-color:#818DA7;stop-opacity:0.53"/>
					<stop  offset="0.16" style="stop-color:#506085;stop-opacity:0.74"/>
					<stop  offset="0.23" style="stop-color:#2D416C;stop-opacity:0.89"/>
					<stop  offset="0.33" style="stop-color:#192E5E;stop-opacity:0.97"/>
					<stop  offset="0.51" style="stop-color:#13295A"/>
					<stop  offset="0.69" style="stop-color:#192E5E;stop-opacity:0.98"/>
					<stop  offset="0.78" style="stop-color:#2C406C;stop-opacity:0.89"/>
					<stop  offset="0.85" style="stop-color:#4F5F84;stop-opacity:0.75"/>
					<stop  offset="0.91" style="stop-color:#7F8BA5;stop-opacity:0.54"/>
					<stop  offset="0.96" style="stop-color:#BDC3D1;stop-opacity:0.28"/>
					<stop  offset="1" style="stop-color:#FFFFFF;stop-opacity:0"/>
				</linearGradient>
				<path class="st2" d="M499.4,347c-0.6-0.4-61.1-38.1-193.1-58.6C113.9,258.5,12.7,95.2-6.2,20.8l1.9-0.5
					c14,55.3,57.7,115.1,90.9,149.6c42.4,44.1,115,100.2,220.1,116.5c132.4,20.5,193.2,58.5,193.8,58.9L499.4,347z"/>
				
					<linearGradient id="SVGID_5_" gradientUnits="userSpaceOnUse" x1="-30.55" y1="817.9775" x2="306.68" y2="817.9775" gradientTransform="matrix(1 0 0 -1 0 1023.8076)">
					<stop  offset="0" style="stop-color:#FFFFFF;stop-opacity:0"/>
					<stop  offset="6.000000e-02" style="stop-color:#E9EBF0;stop-opacity:9.000000e-02"/>
					<stop  offset="0.33" style="stop-color:#8D97AF;stop-opacity:0.48"/>
					<stop  offset="0.58" style="stop-color:#4A5B80;stop-opacity:0.77"/>
					<stop  offset="0.81" style="stop-color:#213664;stop-opacity:0.94"/>
					<stop  offset="1" style="stop-color:#13295A"/>
				</linearGradient>
				<path class="st3" d="M306.7,288.5c-72.3-0.1-135.1-8.9-186.4-26c-41.2-13.7-75.2-32.7-101.1-56.6
					c-23.1-21.3-35.4-42.5-41.6-56.6c-6.8-15.3-8-25.4-8.1-25.8l2-0.2c0.1,0.4,5.4,41.1,49.2,81.4c25.7,23.7,59.5,42.5,100.4,56.1
					c51.1,17,113.6,25.7,185.7,25.8L306.7,288.5z"/>
				
					<linearGradient id="SVGID_6_" gradientUnits="userSpaceOnUse" x1="-10.26" y1="836.0976" x2="303.46" y2="836.0976" gradientTransform="matrix(1 0 0 -1 0 1023.8076)">
					<stop  offset="0" style="stop-color:#FFFFFF;stop-opacity:0"/>
					<stop  offset="6.000000e-02" style="stop-color:#E9EBF0;stop-opacity:9.000000e-02"/>
					<stop  offset="0.33" style="stop-color:#8D97AF;stop-opacity:0.48"/>
					<stop  offset="0.58" style="stop-color:#4A5B80;stop-opacity:0.77"/>
					<stop  offset="0.81" style="stop-color:#213664;stop-opacity:0.94"/>
					<stop  offset="1" style="stop-color:#13295A"/>
				</linearGradient>
				<path class="st4" d="M303.3,288.3c-57.5-4.9-109.7-18.3-155.2-39.8c-36.5-17.3-68.8-39.9-95.9-67.1
					c-46-46.2-62.3-91.3-62.5-94.1l2-0.1c0.5,3.7,17.4,48.4,62.4,93.4c27,26.9,59,49.3,95.3,66.4c45.1,21.3,96.9,34.6,154,39.4
					L303.3,288.3z"/>
				
					<linearGradient id="SVGID_7_" gradientUnits="userSpaceOnUse" x1="-36.99" y1="792.2375" x2="305.77" y2="792.2375" gradientTransform="matrix(1 0 0 -1 0 1023.8076)">
					<stop  offset="0" style="stop-color:#FFFFFF;stop-opacity:0"/>
					<stop  offset="6.000000e-02" style="stop-color:#E9EBF0;stop-opacity:9.000000e-02"/>
					<stop  offset="0.33" style="stop-color:#8D97AF;stop-opacity:0.48"/>
					<stop  offset="0.58" style="stop-color:#4A5B80;stop-opacity:0.77"/>
					<stop  offset="0.81" style="stop-color:#213664;stop-opacity:0.94"/>
					<stop  offset="1" style="stop-color:#13295A"/>
				</linearGradient>
				<path class="st5" d="M269.3,290c-51.6,0-98.3-4.6-139.4-13.8c-40.5-9.1-75.5-22.6-104.2-40.1c-49-30-62.6-61.9-62.7-62.2
					l1.9-0.8c4.5,10.9,23.2,37.7,62,61.4c28.5,17.4,63.4,30.8,103.6,39.8c50.3,11.3,109.3,15.6,175.2,13l0.1,1
					C293.4,288.8,281.2,290,269.3,290z"/>
				
					<linearGradient id="SVGID_8_" gradientUnits="userSpaceOnUse" x1="-4.79" y1="847.6176" x2="288.66" y2="847.6176" gradientTransform="matrix(1 0 0 -1 0 1023.8076)">
					<stop  offset="0" style="stop-color:#FFFFFF;stop-opacity:0"/>
					<stop  offset="6.000000e-02" style="stop-color:#E9EBF0;stop-opacity:9.000000e-02"/>
					<stop  offset="0.33" style="stop-color:#8D97AF;stop-opacity:0.48"/>
					<stop  offset="0.58" style="stop-color:#4A5B80;stop-opacity:0.77"/>
					<stop  offset="0.81" style="stop-color:#213664;stop-opacity:0.94"/>
					<stop  offset="1" style="stop-color:#13295A"/>
				</linearGradient>
				<path class="st6" d="M288.4,286.7c-45.1-6.1-88.5-21.4-129.2-45.6c-32.5-19.4-63.3-44.4-91.5-74.4C19.7,115.5-4.5,67-4.8,66.6
					l1.8-0.9c0.2,0.5,24.4,48.8,72.2,99.7c28,29.9,58.7,54.8,91,74c40.4,24.1,83.6,39.3,128.4,45.4L288.4,286.7z"/>
				
					<linearGradient id="SVGID_9_" gradientUnits="userSpaceOnUse" x1="-0.43" y1="803.9726" x2="282.7" y2="803.9726" gradientTransform="matrix(1 0 0 -1 0 1023.8076)">
					<stop  offset="0" style="stop-color:#FFFFFF;stop-opacity:0"/>
					<stop  offset="6.000000e-02" style="stop-color:#E9EBF0;stop-opacity:9.000000e-02"/>
					<stop  offset="0.33" style="stop-color:#8D97AF;stop-opacity:0.48"/>
					<stop  offset="0.58" style="stop-color:#4A5B80;stop-opacity:0.77"/>
					<stop  offset="0.81" style="stop-color:#213664;stop-opacity:0.94"/>
					<stop  offset="1" style="stop-color:#13295A"/>
				</linearGradient>
				<path class="st7" d="M282.5,287.6c-47.7-3.1-92.2-12.1-132.3-26.8c-31.1-11.2-60.5-26.5-87.5-45.5c-17.7-12.5-33.9-26.9-48.3-43
					C4.3,160.8-0.4,153.2-0.4,153.1l1.7-1.1C1.3,152.2,6,159.7,16,171c14.4,16,30.5,30.3,48,42.7c26.8,18.9,56.1,34.2,87,45.3
					c40,14.5,84.3,23.5,131.7,26.6L282.5,287.6z"/>
				
					<linearGradient id="SVGID_10_" gradientUnits="userSpaceOnUse" x1="0.68" y1="692.6176" x2="719.9601" y2="692.6176" gradientTransform="matrix(1 0 0 -1 0 1023.8076)">
					<stop  offset="0" style="stop-color:#FFFFFF;stop-opacity:0"/>
					<stop  offset="0" style="stop-color:#FDFDFE;stop-opacity:1.000000e-02"/>
					<stop  offset="6.000000e-02" style="stop-color:#B5BCCB;stop-opacity:0.31"/>
					<stop  offset="0.12" style="stop-color:#7986A2;stop-opacity:0.57"/>
					<stop  offset="0.19" style="stop-color:#4B5C81;stop-opacity:0.76"/>
					<stop  offset="0.28" style="stop-color:#2B3F6B;stop-opacity:0.9"/>
					<stop  offset="0.4" style="stop-color:#182E5E;stop-opacity:0.98"/>
					<stop  offset="0.68" style="stop-color:#13295A"/>
					<stop  offset="0.74" style="stop-color:#283C69;stop-opacity:0.91"/>
					<stop  offset="0.83" style="stop-color:#627192;stop-opacity:0.66"/>
					<stop  offset="0.94" style="stop-color:#C1C7D4;stop-opacity:0.26"/>
					<stop  offset="1" style="stop-color:#FFFFFF;stop-opacity:0"/>
				</linearGradient>
				<path class="st8" d="M718.3,426.8c-0.3-0.4-28.3-44.4-89.9-83.6c-36.2-23-76.6-39.8-120.3-50c-54.6-12.8-114.3-15.2-177.6-7.1
					c-63.5,8.1-120.3,10.5-168.9,7.2c-38.9-2.6-72.6-8.9-100.3-18.6c-47.2-16.6-60.2-37.4-60.7-38.2l1.7-1
					c4.4,7.2,22.6,24.4,60,37.5c78.3,27.4,188.9,21.2,267.9,11.2c63.5-8.1,123.6-5.6,178.4,7.2c43.9,10.3,84.5,27.2,120.9,50.3
					c61.9,39.4,90.1,83.7,90.4,84.1L718.3,426.8z"/>
				<line class="st9" x1="-6.2" y1="375.6" x2="144.5" y2="204.2"/>
				<polyline class="st9" points="606,407.9 539.5,320.4 432.7,348.8 				"/>
				<polyline class="st9" points="164,160.4 39,450.5 236.4,358 				"/>
				<polyline class="st9" points="236.3,356.5 85.7,109 162.7,160.4 236.3,356.5 430.1,348.1 606.9,408.6 				"/>
				<path class="st9" d="M-2.7,200.5c7.1,4.7,51.1,112.6,51.1,112.6l-51.1-25.7"/>
				<polyline class="st9" points="516.7,580.5 431.2,348.5 295.5,588.8 38,450.8 				"/>
				<line class="st9" x1="516.7" y1="580.5" x2="469.3" y2="747"/>
				<polyline class="st9" points="295.5,588.8 324.5,680.6 610.6,663.5 455,756.3 				"/>
				<line class="st9" x1="607" y1="408.4" x2="5.2" y2="758.9"/>
				<circle class="st10" cx="48.4" cy="313.1" r="4.8"/>
				<circle class="st10" cx="163.5" cy="162.6" r="4.8"/>
				<circle class="st10" cx="539.5" cy="320.4" r="4.8"/>
				<circle class="st10" cx="612" cy="662.5" r="4.8"/>
				<circle class="st10" cx="84.2" cy="106.3" r="4.8"/>
				<circle class="st10" cx="38" cy="450.8" r="4.8"/>
				<circle class="st10" cx="479.8" cy="481.8" r="4.8"/>
				<circle class="st10" cx="605.8" cy="409.3" r="4.8"/>
				<circle class="st10" cx="516.7" cy="580.5" r="4.8"/>
				<circle class="st10" cx="295.5" cy="590" r="4.8"/>
				<circle class="st10" cx="236.3" cy="356.5" r="4.8"/>
				<circle class="st10" cx="360.7" cy="473.1" r="4.8"/>
				<circle class="st10" cx="431.2" cy="348.5" r="4.8"/>
				<circle class="st10" cx="144.5" cy="206.2" r="4.8"/>
				
					<linearGradient id="SVGID_11_" gradientUnits="userSpaceOnUse" x1="1062.608" y1="-59.2936" x2="1309.6377" y2="-59.2936" gradientTransform="matrix(-0.9668 -0.2554 -0.2554 0.9668 1338.1498 1105.6219)">
					<stop  offset="0" style="stop-color:#FFFFFF"/>
					<stop  offset="1" style="stop-color:#000000"/>
				</linearGradient>
				<path class="st11" d="M98.3,676.4c43.6,59.4,100.6,93,140.8,110.8c43.5,19.2,77.1,24.5,77.5,24.5l-0.3,2
					c-0.3,0-34.2-5.3-77.9-24.7c-40.4-17.8-97.7-51.7-141.6-111.4L98.3,676.4z"/>
				
					<linearGradient id="SVGID_12_" gradientUnits="userSpaceOnUse" x1="931.6924" y1="-0.4316" x2="1438.3464" y2="-0.4316" gradientTransform="matrix(-0.9668 -0.2554 -0.2554 0.9668 1338.1498 1105.6219)">
					<stop  offset="0" style="stop-color:#FFFFFF"/>
					<stop  offset="0.51" style="stop-color:#000000"/>
					<stop  offset="1" style="stop-color:#FFFFFF"/>
				</linearGradient>
				<path class="st12" d="M-9.6,580.1c0.5,0.5,49.3,52.5,171.7,106c178.5,78,234.6,261.8,233.8,338.5h-2
					c0.6-57-26.4-126.1-49.6-167.9c-29.7-53.5-85.6-126.2-183-168.8C38.5,634.3-10.6,582-11.1,581.5L-9.6,580.1z"/>
				
					<linearGradient id="SVGID_13_" gradientUnits="userSpaceOnUse" x1="907.3422" y1="-22.6462" x2="1244.5676" y2="-22.6462" gradientTransform="matrix(-0.9668 -0.2554 -0.2554 0.9668 1338.1498 1105.6219)">
					<stop  offset="0" style="stop-color:#FFFFFF"/>
					<stop  offset="1" style="stop-color:#000000"/>
				</linearGradient>
				<path class="st13" d="M161.8,685.9c69.9,18.6,128.3,43.1,173.6,72.8c36.3,23.8,64.3,50.9,83.3,80.6
					c16.9,26.5,23.3,50.2,25.8,65.4c2.6,16.5,1.3,26.6,1.2,27.1l-2-0.3c0-0.4,5.3-41.1-26.8-91.2c-18.8-29.4-46.7-56.3-82.7-79.9
					c-45.1-29.5-103.3-53.9-172.9-72.4L161.8,685.9z"/>
				
					<linearGradient id="SVGID_14_" gradientUnits="userSpaceOnUse" x1="927.637" y1="-4.4603" x2="1241.3604" y2="-4.4603" gradientTransform="matrix(-0.9668 -0.2554 -0.2554 0.9668 1338.1498 1105.6219)">
					<stop  offset="0" style="stop-color:#FFFFFF"/>
					<stop  offset="1" style="stop-color:#000000"/>
				</linearGradient>
				<path class="st14" d="M165,687c54.3,19.4,101.4,45.7,139.8,78.1c30.9,26.1,56.3,56.2,75.6,89.4c32.7,56.4,36.9,104.2,36.3,106.9
					l-2-0.4c0.5-3.7-4.5-51.3-36.5-106.2c-19.2-32.9-44.5-62.7-75.2-88.6c-38.2-32.1-84.9-58.2-138.8-77.4L165,687z"/>
				
					<linearGradient id="SVGID_15_" gradientUnits="userSpaceOnUse" x1="900.8702" y1="-48.3106" x2="1243.7133" y2="-48.3106" gradientTransform="matrix(-0.9668 -0.2554 -0.2554 0.9668 1338.1498 1105.6219)">
					<stop  offset="0" style="stop-color:#FFFFFF"/>
					<stop  offset="1" style="stop-color:#000000"/>
				</linearGradient>
				<path class="st15" d="M198.3,694c49.9,13.2,93.8,29.6,131.2,49c36.8,19.1,67.3,41.1,90.5,65.4c39.7,41.5,44.7,75.8,44.7,76.2
					l-2,0.3c-1.6-11.7-12.8-42.4-44.3-75.2c-23.1-24.1-53.4-46-90-65c-45.8-23.7-101.7-43-166.1-57.3l0.2-1
					C174.7,689,186.8,690.9,198.3,694z"/>
				
					<linearGradient id="SVGID_16_" gradientUnits="userSpaceOnUse" x1="933.103" y1="7.0115" x2="1226.5848" y2="7.0115" gradientTransform="matrix(-0.9668 -0.2554 -0.2554 0.9668 1338.1498 1105.6219)">
					<stop  offset="0" style="stop-color:#FFFFFF"/>
					<stop  offset="1" style="stop-color:#000000"/>
				</linearGradient>
				<path class="st16" d="M179,692.3c42,17.4,80.1,43.3,113.2,77.1c26.5,27,49.8,59.1,69.5,95.3c33.4,61.7,44.4,114.8,44.5,115.3
					l-2,0.4c-0.1-0.5-11.1-53.4-44.4-114.8c-19.5-36-42.8-68-69.1-94.8c-32.9-33.6-70.8-59.4-112.5-76.6L179,692.3z"/>
				
					<linearGradient id="SVGID_17_" gradientUnits="userSpaceOnUse" x1="937.4542" y1="-36.6499" x2="1220.533" y2="-36.6499" gradientTransform="matrix(-0.9668 -0.2554 -0.2554 0.9668 1338.1498 1105.6219)">
					<stop  offset="0" style="stop-color:#FFFFFF"/>
					<stop  offset="1" style="stop-color:#000000"/>
				</linearGradient>
				<path class="st17" d="M184.9,692.9c45.3,15.2,86,35.3,121.1,59.7c27.2,18.7,51.7,41,72.9,66.4c13.9,16.6,25.9,34.7,35.7,53.9
					c6.8,13.6,9.5,22.2,9.5,22.3l-1.9,0.6c0-0.1-2.6-8.6-9.4-22.1c-9.8-19.1-21.7-37.1-35.5-53.5c-21.1-25.2-45.5-47.4-72.5-66
					c-34.9-24.2-75.5-44.2-120.5-59.4L184.9,692.9z"/>
				
					<linearGradient id="SVGID_18_" gradientUnits="userSpaceOnUse" x1="938.5783" y1="-147.9861" x2="1657.8475" y2="-147.9861" gradientTransform="matrix(-0.9668 -0.2554 -0.2554 0.9668 1338.1498 1105.6219)">
					<stop  offset="0" style="stop-color:#FFFFFF"/>
					<stop  offset="1" style="stop-color:#000000"/>
				</linearGradient>
				<path class="st18" d="M-200.8,447c0.1,0.5,16,50.2,65.5,103.7c29.1,31.4,63.9,58,103.5,79.1c49.5,26.3,106.7,43.9,169.9,52.3
					c63.4,8.4,119,20.6,165.1,36.2c36.9,12.5,68,27.1,92.2,43.6c41.4,28.1,48.6,51.5,48.9,52.5l-1.9,0.6
					c-2.4-8.1-15.6-29.3-48.4-51.5c-68.7-46.5-177.2-68.8-256.2-79.2c-63.5-8.4-120.9-26.1-170.6-52.5
					c-39.8-21.1-74.8-47.9-104-79.5c-49.8-53.9-65.8-103.9-65.9-104.4L-200.8,447z"/>
				<circle class="st10" cx="490.7" cy="670.9" r="4.8"/>
				<circle class="st10" cx="324.6" cy="680.6" r="4.8"/>
			</g>
		</g>
	</g>
</g>
</svg>
