<svg xmlns="http://www.w3.org/2000/svg" viewBox="0 0 293.87 48.66"><defs><style>.cls-1{fill:#fff;}.cls-2{fill:#9fa0a0;}.cls-3{fill:#c9caca;}.cls-4{fill:none;}</style></defs><g id="レイヤー_1" data-name="レイヤー 1"><path class="cls-1" d="M88,38.29V6.05L109.9,29V8.09h4.61V40.15l-21.91-23v21.1Z"/><path class="cls-1" d="M132.17,19.23h4.44V38.29h-4.44v-2a7.31,7.31,0,0,1-5.7,2.58c-5.89,0-9.24-4.89-9.24-10.14,0-6.21,4.26-10,9.28-10a6.93,6.93,0,0,1,5.66,2.72Zm-10.41,9.6c0,3.3,2.08,6.07,5.3,6.07,2.8,0,5.39-2,5.39-6,0-4.16-2.59-6.16-5.39-6.16C123.84,22.71,121.76,25.43,121.76,28.83Z"/><path class="cls-1" d="M139.46,19.23h4.44V21a6.59,6.59,0,0,1,5.16-2.26,6.39,6.39,0,0,1,5.62,2.58c.72,1,1.18,2.36,1.18,5.3V38.29h-4.44V27.7c0-4.85-1.81-5-3.49-5-2,0-4,.28-4,6.43v9.15h-4.44Z"/><path class="cls-1" d="M163.19,21.45a6.94,6.94,0,0,1,5.66-2.72c5,0,9.28,3.8,9.28,10,0,5.25-3.35,10.14-9.23,10.14a7.34,7.34,0,0,1-5.71-2.58v2h-4.44v-33h4.44Zm-.27,7.42c0,4,2.58,6,5.39,6,3.21,0,5.3-2.77,5.3-6.07s-2.09-6.12-5.3-6.12C165.5,22.71,162.92,24.71,162.92,28.87Z"/><path class="cls-1" d="M184.75,35.3,176.6,19.23h5.34l5.43,11.14,5.53-11.14h5L182.71,48.66h-5Z"/><path class="cls-1" d="M216.71,28.78a10.19,10.19,0,0,1-20.37,0,10.19,10.19,0,0,1,20.37,0Zm-4.52,0c0-4.35-2.86-6.12-5.66-6.12s-5.66,1.77-5.66,6.12c0,3.67,2.17,6.07,5.66,6.07S212.19,32.5,212.19,28.83Z"/><path class="cls-1" d="M224.86,8.09c4.22,0,7.88.45,11.23,2.94a15,15,0,0,1,5.8,12.18,14.38,14.38,0,0,1-6.07,12.18c-3.53,2.49-6.84,2.9-11,2.9h-6.24V8.09Zm-1.72,25.85h2c2.26,0,5.38-.18,8-2.12a10.68,10.68,0,0,0,4.12-8.61,10.76,10.76,0,0,0-4.07-8.69c-2.63-1.9-5.85-2.08-8.06-2.08h-2Z"/><path class="cls-1" d="M258.1,19.23h4.44V38.29H258.1v-2a7.34,7.34,0,0,1-5.7,2.58c-5.89,0-9.24-4.89-9.24-10.14,0-6.21,4.26-10,9.28-10a6.94,6.94,0,0,1,5.66,2.72Zm-10.41,9.6c0,3.3,2.08,6.07,5.29,6.07,2.81,0,5.39-2,5.39-6,0-4.16-2.58-6.16-5.39-6.16C249.77,22.71,247.69,25.43,247.69,28.83Z"/><path class="cls-1" d="M270.92,23.3v15h-4.44v-15h-1.86V19.23h1.86v-7h4.44v7h3.39V23.3Z"/><path class="cls-1" d="M289.44,19.23h4.43V38.29h-4.43v-2a7.34,7.34,0,0,1-5.71,2.58c-5.89,0-9.24-4.89-9.24-10.14,0-6.21,4.26-10,9.29-10a7,7,0,0,1,5.66,2.72ZM279,28.83c0,3.3,2.08,6.07,5.3,6.07,2.81,0,5.39-2,5.39-6,0-4.16-2.58-6.16-5.39-6.16C281.1,22.71,279,25.43,279,28.83Z"/><polygon class="cls-2" points="34.32 24.15 29.36 29.11 29.36 24.15 27.3 24.15 27.3 31.17 25.16 33.31 25.16 24.15 23.1 24.15 23.1 33.27 21.01 31.18 21.01 24.15 18.95 24.15 18.95 29.12 13.98 24.15 6.99 31.14 24.15 48.3 41.31 31.14 34.32 24.15"/><polygon class="cls-3" points="75.63 17.15 58.47 0 41.32 17.16 48.31 24.14 53.27 19.18 53.26 24.15 55.32 24.15 55.33 17.12 57.44 15.01 57.44 24.15 59.5 24.15 59.5 15.01 61.62 17.12 61.61 24.15 63.67 24.15 63.67 19.18 68.64 24.14 75.63 17.15"/><polygon class="cls-4" points="48.31 24.14 48.3 24.15 58.47 34.32 68.64 24.15 68.64 24.14 58.47 34.31 48.31 24.14"/><polygon class="cls-4" points="24.15 13.98 13.98 24.15 13.98 24.15 24.15 13.99 34.32 24.15 34.32 24.15 24.15 13.98"/><polygon class="cls-1" points="82.62 24.15 75.63 17.15 68.64 24.14 68.64 24.15 58.47 34.32 48.3 24.15 48.31 24.14 41.32 17.16 41.31 17.16 24.15 0 0 24.15 6.99 31.14 13.98 24.15 13.98 24.15 24.15 13.98 34.32 24.15 34.32 24.15 41.31 31.14 41.31 31.14 58.47 48.3 82.62 24.15"/></g></svg>