<?xml version="1.0" encoding="UTF-8"?><svg id="_レイヤー_2" xmlns="http://www.w3.org/2000/svg" viewBox="0 0 49.5 49.5"><defs><style>.cls-1{fill:#1eb2aa;stroke:#13295a;stroke-miterlimit:10;stroke-width:1.5px;}</style></defs><g id="_レイヤー_1-2"><path class="cls-1" d="M27.75,4.83c0,4.68,5.65,7.02,8.96,3.71l.77-.77c1.17-1.17,3.08-1.17,4.25,0s1.17,3.08,0,4.25l-.77.77c-3.31,3.31-.96,8.96,3.71,8.96h1.08c1.66,0,3,1.34,3,3s-1.34,3-3,3h-1.07c-4.68,0-7.02,5.65-3.71,8.96l.77.77c1.17,1.17,1.17,3.08,0,4.25s-3.08,1.17-4.25,0l-.77-.77c-3.31-3.31-8.96-.96-8.96,3.71v1.08c0,1.66-1.34,3-3,3s-3-1.34-3-3v-1.08c0-4.68-5.65-7.02-8.96-3.71l-.77.77c-1.17,1.17-3.07,1.17-4.25,0s-1.17-3.08,0-4.25l.76-.77c3.31-3.31.96-8.96-3.71-8.96h-1.08c-1.66,0-3-1.34-3-3s1.34-3,3-3h1.08c4.68,0,7.02-5.65,3.72-8.95l-.77-.77c-1.17-1.17-1.17-3.07,0-4.25s3.07-1.17,4.24,0l.77.76c3.31,3.31,8.96.96,8.96-3.71v-1.08c0-1.66,1.34-3,3-3s3,1.34,3,3v1.08ZM21.75,17.25c-2.48,0-4.5,2.02-4.5,4.5s2.02,4.5,4.5,4.5,4.5-2.02,4.5-4.5-2.02-4.5-4.5-4.5ZM31.5,29.25c0-1.25-1-2.25-2.25-2.25s-2.25,1-2.25,2.25,1,2.25,2.25,2.25,2.25-1,2.25-2.25Z"/></g></svg>