<?xml version="1.0" encoding="utf-8"?>
<!-- Generator: Adobe Illustrator 23.0.2, SVG Export Plug-In . SVG Version: 6.00 Build 0)  -->
<svg version="1.1" id="レイヤー_1" xmlns="http://www.w3.org/2000/svg" xmlns:xlink="http://www.w3.org/1999/xlink" x="0px"
	 y="0px" viewBox="0 0 177.7 36.2" style="enable-background:new 0 0 177.7 36.2;" xml:space="preserve">
<style type="text/css">
	.st0{fill:#FFFFFF;}
</style>
<title>アセット 1</title>
<g>
	<g id="レイヤー_1-2">
		<path class="st0" d="M0,27.6V0.7l18.4,19.2V2.4h3.8v26.7L3.8,9.9v17.7H0z"/>
		<path class="st0" d="M36.6,11.7h3.7v15.9h-3.7v-1.7c-1.5,1.4-3.1,2.1-4.9,2.1c-2.1,0.1-4.1-0.8-5.5-2.4c-1.5-1.7-2.2-3.9-2.1-6.1
			c-0.1-2.2,0.7-4.3,2.1-6c1.3-1.5,3.3-2.4,5.4-2.4c1.9,0,3.5,0.8,5,2.3V11.7z M27.9,19.6c-0.1,1.3,0.4,2.7,1.2,3.7
			c0.8,0.9,1.9,1.5,3.2,1.5s2.5-0.5,3.3-1.4c0.9-1,1.3-2.3,1.3-3.7c0.1-1.3-0.4-2.7-1.3-3.7c-0.8-0.9-2-1.5-3.3-1.4
			c-1.2,0-2.4,0.5-3.2,1.4C28.3,17,27.8,18.3,27.9,19.6z"/>
		<path class="st0" d="M43.6,11.7h3.7v1.5c1.1-1.2,2.7-1.9,4.4-1.9c1.9,0,3.3,0.6,4.3,1.7c0.9,1,1.3,2.6,1.3,4.8v9.8h-3.7v-8.9
			c0-1.6-0.2-2.7-0.7-3.3c-0.4-0.6-1.2-0.9-2.3-0.9c-1.2,0-2.1,0.4-2.6,1.2c-0.5,0.8-0.7,2.2-0.7,4.2v7.7h-3.7V11.7z"/>
		<path class="st0" d="M63.6,0v13.5c1.5-1.5,3.1-2.3,5-2.3c2.1,0,4,0.8,5.4,2.4c1.5,1.6,2.2,3.8,2.2,6c0,2.5-0.7,4.5-2.2,6.1
			c-2.6,2.9-7,3.2-10,0.6c-0.1-0.1-0.3-0.2-0.4-0.4v1.7h-3.7V0H63.6z M72.3,19.7c0.1-1.4-0.4-2.7-1.2-3.7c-0.8-0.9-1.9-1.5-3.2-1.5
			c-1.3,0-2.5,0.5-3.3,1.4c-0.9,1-1.3,2.3-1.3,3.7c-0.1,1.3,0.4,2.7,1.2,3.7c0.8,0.9,2,1.5,3.3,1.4c1.2,0,2.4-0.5,3.2-1.4
			C71.9,22.3,72.3,21.1,72.3,19.7z"/>
		<path class="st0" d="M83,24.6l-7.2-12.9h4.3l4.9,9.1l4.5-9.1h4.1L80.9,36.2h-4.2L83,24.6z"/>
		<path class="st0" d="M93.4,19.5c0-2.2,0.9-4.3,2.5-5.9c3.4-3.2,8.7-3.2,12,0c1.6,1.6,2.5,3.7,2.4,6c0.1,2.3-0.8,4.4-2.5,6
			c-1.6,1.6-3.8,2.5-6.1,2.4c-2.2,0.1-4.4-0.8-6-2.4C94.2,24,93.3,21.8,93.4,19.5z M97.1,19.6c0,1.6,0.4,2.8,1.3,3.8
			c1.9,1.9,5,1.9,6.9,0c0.9-1,1.4-2.3,1.3-3.7c0.1-1.4-0.4-2.7-1.3-3.7c-1.9-1.9-5-1.9-6.9,0C97.5,16.9,97,18.2,97.1,19.6L97.1,19.6
			z"/>
		<path class="st0" d="M112.9,27.6V2.4h5.3c2.5,0,4.5,0.2,6,0.7c1.6,0.5,3.1,1.4,4.3,2.5c2.6,2.4,3.9,5.5,3.9,9.4s-1.4,7-4.1,9.4
			c-1.2,1.1-2.7,2-4.3,2.5c-1.4,0.5-3.4,0.7-5.9,0.7H112.9z M116.7,24h1.7c1.4,0,2.9-0.1,4.3-0.5c1.1-0.4,2.2-1,3.1-1.8
			c1.9-1.7,2.8-3.9,2.8-6.7s-0.9-5-2.7-6.7c-1.7-1.5-4.1-2.3-7.4-2.3h-1.7L116.7,24z"/>
		<path class="st0" d="M146.2,11.7h3.7v15.9h-3.7v-1.7c-1.5,1.4-3.1,2.1-4.9,2.1c-2.1,0.1-4.1-0.8-5.5-2.4c-1.5-1.7-2.2-3.9-2.1-6.1
			c-0.1-2.2,0.7-4.3,2.1-6c1.3-1.6,3.3-2.4,5.4-2.4c1.9,0,3.5,0.8,5,2.3V11.7z M137.5,19.6c-0.1,1.3,0.4,2.7,1.2,3.7
			c0.8,0.9,1.9,1.5,3.2,1.5s2.5-0.5,3.3-1.4c0.9-1,1.3-2.3,1.3-3.7c0.1-1.3-0.4-2.7-1.3-3.7c-0.8-0.9-2-1.5-3.3-1.4
			c-1.2,0-2.4,0.5-3.2,1.4C137.9,17,137.4,18.3,137.5,19.6z"/>
		<path class="st0" d="M157.6,15.1v12.5H154V15.1h-1.6v-3.4h1.6V5.8h3.7v5.8h2.9V15h-3V15.1z"/>
		<path class="st0" d="M174,11.7h3.7v15.9H174v-1.7c-1.5,1.4-3.1,2.1-4.9,2.1c-2.1,0.1-4.1-0.8-5.4-2.4c-1.5-1.7-2.2-3.9-2.1-6.1
			c-0.1-2.2,0.7-4.3,2.1-6c1.3-1.6,3.3-2.4,5.4-2.4c1.9,0,3.5,0.8,5,2.3v-1.7H174z M165.3,19.6c-0.1,1.3,0.4,2.7,1.2,3.7
			c0.8,0.9,1.9,1.5,3.2,1.5s2.5-0.5,3.3-1.4c0.9-1,1.3-2.3,1.3-3.7c0.1-1.3-0.4-2.7-1.3-3.7c-0.8-0.9-2-1.5-3.3-1.4
			c-1.2,0-2.4,0.5-3.2,1.4C165.7,17,165.3,18.3,165.3,19.6z"/>
	</g>
</g>
</svg>
