<?xml version="1.0" encoding="UTF-8"?><svg id="_レイヤー_1" xmlns="http://www.w3.org/2000/svg" viewBox="0 0 88.31 59.38"><defs><style>.cls-1{fill:#20b2aa;}</style></defs><rect class="cls-1" x="71.53" y="24.99" width="15.56" height="15.56" rx="2" ry="2" transform="translate(158.62 65.53) rotate(180)"/><rect class="cls-1" x="44.5" y="24.99" width="15.56" height="15.56" rx="2" ry="2" transform="translate(104.56 65.53) rotate(180)"/><rect class="cls-1" x="18.5" y="24.57" width="16.5" height="16.5" rx="8.25" ry="8.25" transform="translate(53.5 65.65) rotate(180)"/><rect class="cls-1" x="50.67" y="30.77" width="26.67" height="4" transform="translate(128 65.53) rotate(180)"/><rect class="cls-1" x="27.67" y="30.77" width="26.67" height="4" transform="translate(82 65.53) rotate(180)"/><rect class="cls-1" x="0" y="42.87" width="16.5" height="16.5" rx="8.25" ry="8.25" transform="translate(16.5 102.25) rotate(180)"/><rect class="cls-1" x="0" y="6.62" width="16.5" height="16.5" rx="8.25" ry="8.25" transform="translate(16.5 29.75) rotate(180)"/><rect class="cls-1" x="5.17" y="39" width="26.67" height="4" transform="translate(60.57 56.91) rotate(135)"/><rect class="cls-1" x="5.17" y="23" width="26.67" height="4" transform="translate(13.9 55.76) rotate(-135)"/><rect class="cls-1" x="61.08" y="20.23" width="36.45" height="4" transform="translate(101.53 -57.08) rotate(90)"/><path class="cls-1" d="M79.31,0h8.17c.64,0,1.04.75.72,1.34l-4.08,7.61-4.08,7.61c-.32.6-1.12.6-1.44,0l-4.08-7.61-4.08-7.61c-.32-.6.08-1.34.72-1.34h8.17Z"/></svg>