<?xml version="1.0" encoding="utf-8"?>
<!-- Generator: Adobe Illustrator 23.0.2, SVG Export Plug-In . SVG Version: 6.00 Build 0)  -->
<svg version="1.1" id="レイヤー_1" xmlns="http://www.w3.org/2000/svg" xmlns:xlink="http://www.w3.org/1999/xlink" x="0px"
	 y="0px" viewBox="0 0 70.9 70.9" style="enable-background:new 0 0 70.9 70.9;" xml:space="preserve">
<style type="text/css">
	.st0{fill:#495AFF;}
	.st1{fill:#495AFF;stroke:#13295A;stroke-width:2;stroke-linecap:round;stroke-linejoin:round;}
	.st2{fill:#FFFFFF;stroke:#13295A;stroke-width:2;stroke-linecap:round;stroke-linejoin:round;}
	.st3{fill:none;stroke:#13295A;stroke-width:2;stroke-linecap:round;stroke-linejoin:round;}
</style>
<title>アセット 4</title>
<g>
	<g id="レイヤー_6">
		<rect x="28.9" y="55" class="st0" width="12.9" height="8.4"/>
		<path class="st1" d="M68.1,12.5v37c0,3-2.4,5.5-5.5,5.5H8.3c-3,0-5.5-2.4-5.5-5.5v-37c0-3,2.4-5.5,5.5-5.5h54.3
			C65.6,7,68.1,9.5,68.1,12.5z"/>
		<path class="st2" d="M11.3,11.8h48.3c2.4,0,4.3,1.9,4.3,4.3v26.6c0,2.4-1.9,4.3-4.3,4.3H11.3C8.9,47,7,45.1,7,42.7V16.1
			C7,13.7,8.9,11.8,11.3,11.8z"/>
		<line class="st3" x1="28.9" y1="55.3" x2="28.9" y2="63.5"/>
		<line class="st3" x1="42" y1="55.3" x2="42" y2="63.5"/>
		<line class="st3" x1="21.4" y1="63.8" x2="49.5" y2="63.8"/>
		<path class="st3" d="M58.1,24.3c0,0-5.5-1.2-11,4.8c-6.2,6.7-12.4,7.8-18.1,4.3c-4.8-2.9-6-8.3-16-9.3"/>
		<path class="st3" d="M58.1,35c-4.2,0.2-8.3-1.5-11-4.8c-6-6.8-12.4-7.8-18.1-4.3c-4.8,2.9-6.1,8.4-16.2,9.3"/>
		<line class="st3" x1="41.1" y1="25.9" x2="41.1" y2="33.2"/>
		<line class="st3" x1="37.4" y1="24.8" x2="37.4" y2="34.6"/>
		<line class="st3" x1="19.5" y1="25.9" x2="19.5" y2="33.2"/>
		<line class="st3" x1="15.8" y1="24.8" x2="15.8" y2="34.6"/>
		<line class="st3" x1="33.7" y1="24.9" x2="33.7" y2="35.1"/>
		<line class="st3" x1="30" y1="25.5" x2="30" y2="33.8"/>
		<line class="st3" x1="55.8" y1="24.9" x2="55.8" y2="34.5"/>
		<line class="st3" x1="52" y1="25.5" x2="52" y2="33.8"/>
	</g>
</g>
</svg>
