<?xml version="1.0" encoding="utf-8"?>
<!-- Generator: Adobe Illustrator 23.0.2, SVG Export Plug-In . SVG Version: 6.00 Build 0)  -->
<svg version="1.1" id="レイヤー_1" xmlns="http://www.w3.org/2000/svg" xmlns:xlink="http://www.w3.org/1999/xlink" x="0px"
	 y="0px" viewBox="0 0 70.9 70.9" style="enable-background:new 0 0 70.9 70.9;" xml:space="preserve">
<style type="text/css">
	.st0{fill:none;stroke:#13295A;stroke-width:2;stroke-miterlimit:10;}
	.st1{fill:#495AFF;}
	.st2{fill:#13295A;}
</style>
<title>アセット 3</title>
<g>
	<g id="レイヤー_6">
		<line class="st0" x1="43.1" y1="25" x2="27.9" y2="45.8"/>
		<polyline class="st0" points="26.5,25 26.5,5.5 62.2,47 		"/>
		<line class="st0" x1="43.7" y1="45.5" x2="43.7" y2="26.1"/>
		<line class="st0" x1="26.5" y1="5.5" x2="9.8" y2="25"/>
		<path class="st1" d="M26.5,8.6c-1.7,0-3-1.3-3-3s1.3-3,3-3s3,1.3,3,3S28.1,8.6,26.5,8.6z"/>
		<path class="st2" d="M26.5,3.5c1.1,0,2,0.9,2,2s-0.9,2-2,2s-2-0.9-2-2S25.3,3.5,26.5,3.5 M26.5,1.5c-2.2,0-4,1.8-4,4s1.8,4,4,4
			s4-1.8,4-4S28.7,1.5,26.5,1.5z"/>
		<circle class="st1" cx="43.1" cy="25" r="3"/>
		<path class="st2" d="M43.1,22.9c1.1,0,2,0.9,2,2s-0.9,2-2,2s-2-0.9-2-2S42,22.9,43.1,22.9 M43.1,20.9c-2.2,0-4,1.8-4,4s1.8,4,4,4
			s4-1.8,4-4S45.3,20.9,43.1,20.9z"/>
		<path class="st1" d="M26.5,28c-1.7,0-3-1.3-3-3s1.3-3,3-3s3,1.3,3,3S28.1,28,26.5,28z"/>
		<path class="st2" d="M26.5,22.9c1.1,0,2,0.9,2,2s-0.9,2-2,2s-2-0.9-2-2S25.3,22.9,26.5,22.9 M26.5,20.9c-2.2,0-4,1.8-4,4
			s1.8,4,4,4s4-1.8,4-4S28.7,20.9,26.5,20.9z"/>
		<circle class="st1" cx="9.8" cy="25" r="3"/>
		<path class="st2" d="M9.8,22.9c1.1,0,2,0.9,2,2s-0.9,2-2,2s-2-0.9-2-2S8.7,22.9,9.8,22.9 M9.8,20.9c-2.2,0-4,1.8-4,4s1.8,4,4,4
			s4-1.8,4-4S12,20.9,9.8,20.9z"/>
		<polyline class="st0" points="28.3,65.3 28.3,45.9 44.4,64.8 		"/>
		<line class="st0" x1="28.3" y1="45.9" x2="11.6" y2="65.3"/>
		<path class="st1" d="M28.3,48.9c-1.7,0-3-1.3-3-3s1.3-3,3-3s3,1.3,3,3S29.9,48.9,28.3,48.9z"/>
		<path class="st2" d="M28.3,43.9c1.1,0,2,0.9,2,2s-0.9,2-2,2s-2-0.9-2-2S27.2,43.9,28.3,43.9 M28.3,41.9c-2.2,0-4,1.8-4,4
			s1.8,4,4,4s4-1.8,4-4S30.5,41.9,28.3,41.9z"/>
		<path class="st1" d="M44.9,68.4c-1.7,0-3-1.3-3-3s1.3-3,3-3s3,1.3,3,3S46.6,68.4,44.9,68.4z"/>
		<path class="st2" d="M44.9,63.3c1.1,0,2,0.9,2,2s-0.9,2-2,2s-2-0.9-2-2S43.8,63.3,44.9,63.3 M44.9,61.3c-2.2,0-4,1.8-4,4
			c0,2.2,1.8,4,4,4s4-1.8,4-4C48.9,63.1,47.2,61.3,44.9,61.3z"/>
		<path class="st1" d="M28.3,68.4c-1.7,0-3-1.3-3-3s1.3-3,3-3s3,1.3,3,3S29.9,68.4,28.3,68.4z"/>
		<path class="st2" d="M28.3,63.3c1.1,0,2,0.9,2,2s-0.9,2-2,2s-2-0.9-2-2S27.2,63.3,28.3,63.3 M28.3,61.3c-2.2,0-4,1.8-4,4
			c0,2.2,1.8,4,4,4s4-1.8,4-4C32.3,63.1,30.5,61.3,28.3,61.3z"/>
		<circle class="st1" cx="11.6" cy="65.3" r="3"/>
		<path class="st2" d="M11.6,63.3c1.1,0,2,0.9,2,2s-0.9,2-2,2s-2-0.9-2-2S10.5,63.3,11.6,63.3 M11.6,61.3c-2.2,0-4,1.8-4,4
			c0,2.2,1.8,4,4,4s4-1.8,4-4C15.6,63.1,13.8,61.3,11.6,61.3z"/>
		<circle class="st1" cx="61.1" cy="45.8" r="3"/>
		<path class="st2" d="M61.1,43.8c1.1,0,2,0.9,2,2s-0.9,2-2,2s-2-0.9-2-2S60,43.8,61.1,43.8 M61.1,41.8c-2.2,0-4,1.8-4,4s1.8,4,4,4
			s4-1.8,4-4S63.3,41.8,61.1,41.8z"/>
		<path class="st1" d="M44,48.9c-1.7,0-3-1.3-3-3s1.3-3,3-3s3,1.3,3,3S45.6,48.9,44,48.9z"/>
		<path class="st2" d="M44,43.8c1.1,0,2,0.9,2,2s-0.9,2-2,2s-2-0.9-2-2S42.9,43.8,44,43.8 M44,41.8c-2.2,0-4,1.8-4,4s1.8,4,4,4
			s4-1.8,4-4S46.2,41.8,44,41.8z"/>
	</g>
</g>
</svg>
