<?xml version="1.0" encoding="utf-8"?>
<!-- Generator: Adobe Illustrator 23.0.2, SVG Export Plug-In . SVG Version: 6.00 Build 0)  -->
<svg version="1.1" id="レイヤー_1" xmlns="http://www.w3.org/2000/svg" xmlns:xlink="http://www.w3.org/1999/xlink" x="0px"
	 y="0px" viewBox="0 0 70.9 70.9" style="enable-background:new 0 0 70.9 70.9;" xml:space="preserve">
<style type="text/css">
	.st0{fill:#495AFF;}
	.st1{fill:#495AFF;stroke:#13295A;stroke-width:2;stroke-linecap:round;stroke-linejoin:round;}
	.st2{fill:none;stroke:#13295A;stroke-width:2;stroke-linecap:round;stroke-linejoin:round;}
</style>
<title>アセット 5</title>
<g>
	<g id="レイヤー_6">
		<path class="st0" d="M63.1,65.2l-2.2-8l0.4-22.9h5c1.4,0,2.6,1.2,2.6,2.6c0,0.2,0,0.4-0.1,0.5L63.1,65.2"/>
		<path class="st1" d="M2,38.4l10.4,25.1c0.4,1,1.3,1.6,2.4,1.6h48.3L49.6,35.7l-3-5.9C46.1,28.7,45,28,43.8,28H29.7
			c-1.7,0-3.1,1.4-3.1,3.1v4L4.5,34.8c-1.4,0-2.6,1.1-2.6,2.6C1.8,37.8,1.9,38.1,2,38.4z"/>
		<path class="st2" d="M61.4,34.3h5c1.4,0,2.6,1.2,2.6,2.6c0,0.2,0,0.4-0.1,0.5l-5.8,27.7"/>
		<polyline class="st2" points="61.4,60.9 61.4,10.4 22.3,10.4 22.3,35.2 		"/>
		<polyline class="st2" points="17.5,34.8 17.5,5.7 56.6,5.7 56.6,10.2 		"/>
		<rect x="26.6" y="15.2" class="st2" width="10.4" height="9.1"/>
		<line class="st2" x1="40.9" y1="15.7" x2="56.2" y2="15.7"/>
		<line class="st2" x1="40.9" y1="19.8" x2="56.2" y2="19.8"/>
		<line class="st2" x1="40.9" y1="24" x2="56.2" y2="24"/>
		<line class="st2" x1="45.5" y1="28.2" x2="56.2" y2="28.2"/>
		<line class="st2" x1="47.9" y1="32.3" x2="56.2" y2="32.3"/>
		<line class="st2" x1="50.1" y1="36.5" x2="56.2" y2="36.5"/>
		<line class="st2" x1="52.2" y1="40.9" x2="56.2" y2="40.9"/>
	</g>
</g>
</svg>
