<svg xmlns="http://www.w3.org/2000/svg" viewBox="0 0 72.6 72.6"><defs><style>.cls-1{fill:#fff;}.cls-2{fill:none;stroke:#13295a;stroke-miterlimit:10;stroke-width:1.5px;}</style></defs><title>アセット 2</title><g id="レイヤー_2" data-name="レイヤー 2"><g id="レイヤー_7" data-name="レイヤー 7"><circle class="cls-1" cx="36.3" cy="36.3" r="36.3"/><line class="cls-2" x1="27.07" y1="35.18" x2="37.4" y2="45.51"/><line class="cls-2" x1="28.19" y1="31.82" x2="41.2" y2="44.82"/><line class="cls-2" x1="29.54" y1="28.68" x2="43.44" y2="42.58"/><line class="cls-2" x1="32.68" y1="26.88" x2="45.23" y2="39.44"/><line class="cls-2" x1="36.49" y1="26.21" x2="46.35" y2="36.08"/><line class="cls-2" x1="41.42" y1="20.83" x2="51.75" y2="31.16"/><line class="cls-2" x1="42.54" y1="17.47" x2="55.55" y2="30.47"/><line class="cls-2" x1="44.35" y1="14.79" x2="57.79" y2="28.23"/><line class="cls-2" x1="31.18" y1="53.97" x2="18.18" y2="40.96"/><line class="cls-2" x1="29.38" y1="56.64" x2="15.94" y2="43.2"/><path class="cls-2" d="M46.46,12.82s-8.85,7-2.44,16.47-1.83,14.65-1.83,14.65S37.31,48.21,29.68,43s-12.2-2.44-16.17,3.36"/><line class="cls-2" x1="32.3" y1="50.6" x2="21.98" y2="40.27"/><path class="cls-2" d="M60,26.33s-7,8.85-16.47,2.44-15,1.44-15,1.44-3.88,5.27,1.31,12.9,2.05,12.42-4.36,17"/></g></g></svg>