<svg xmlns="http://www.w3.org/2000/svg" viewBox="0 0 72.6 72.6"><defs><style>.cls-1{fill:#13295a;}.cls-2{fill:none;stroke:#fff;stroke-miterlimit:10;stroke-width:1.5px;}</style></defs><title>アセット 1</title><g id="レイヤー_2" data-name="レイヤー 2"><g id="レイヤー_7" data-name="レイヤー 7"><circle class="cls-1" cx="36.3" cy="36.3" r="36.3"/><path class="cls-2" d="M42.18,14.93H37.42V27.58a6.7,6.7,0,0,0,6.7,6.7h0a6.7,6.7,0,0,0,6.7-6.7V14.93H46.06"/><line class="cls-2" x1="42.34" y1="12.28" x2="42.34" y2="17.75"/><line class="cls-2" x1="46.12" y1="12.28" x2="46.12" y2="17.75"/><path class="cls-2" d="M44.12,34.28V45.06a6.17,6.17,0,0,0,6.17,6.17h0a6.17,6.17,0,0,0,6.17-6.17V33.77"/><circle class="cls-2" cx="56.58" cy="31.31" r="2.69"/><path class="cls-2" d="M38.33,54.85H15V39.73H38.27S38.33,54.16,38.33,54.85Z"/><polyline class="cls-2" points="22.3 39.09 22.3 34.9 30.99 34.9 30.99 39.41"/><polygon class="cls-2" points="29.7 46.37 28.06 46.37 28.06 44.74 25.23 44.74 25.23 46.37 23.59 46.37 23.59 49.2 25.23 49.2 25.23 50.84 28.06 50.84 28.06 49.2 29.7 49.2 29.7 46.37"/><line class="cls-2" x1="22.06" y1="37.3" x2="30.47" y2="37.3"/></g></g></svg>